<?xml version="1.0" standalone="no"?>
<!DOCTYPE svg PUBLIC "-//W3C//DTD SVG 20010904//EN"
 "http://www.w3.org/TR/2001/REC-SVG-20010904/DTD/svg10.dtd">
<svg version="1.0" xmlns="http://www.w3.org/2000/svg"
 width="512.000000pt" height="512.000000pt" viewBox="0 0 512.000000 512.000000"
 preserveAspectRatio="xMidYMid meet">
<metadata>
Created by potrace 1.11, written by Peter Selinger 2001-2013
</metadata>
<g transform="translate(0.000000,512.000000) scale(0.100000,-0.100000)"
fill="#000000" stroke="none">
<path d="M3164 4892 c-6 -15 -127 -310 -269 -657 -142 -346 -327 -798 -410
-1003 l-153 -373 50 -117 c27 -64 55 -130 62 -146 11 -27 7 -42 -63 -209 l-76
-180 -80 -42 c-44 -23 -192 -99 -330 -170 -402 -205 -650 -332 -810 -415 -82
-42 -218 -112 -302 -155 -148 -75 -161 -85 -169 -135 -4 -18 30 -95 82 -190
38 -70 66 -122 196 -368 28 -53 59 -111 68 -129 l17 -32 31 19 c39 24 54 52
47 89 -3 16 -57 130 -120 254 l-116 226 42 21 c22 12 42 20 44 18 2 -2 58
-111 126 -243 67 -132 124 -242 126 -244 5 -7 75 29 71 37 -17 36 -188 371
-214 419 -19 33 -34 64 -34 67 0 3 13 12 29 20 l29 15 85 -167 c47 -92 104
-204 128 -249 l42 -81 33 16 c19 8 34 19 34 23 0 4 -56 117 -125 251 -121 237
-123 244 -103 257 13 8 24 9 30 3 5 -5 60 -108 121 -229 149 -290 128 -262
171 -239 l34 18 -95 187 c-53 102 -111 214 -129 249 l-33 62 28 15 c23 11 31
12 38 2 6 -6 63 -115 128 -242 64 -126 119 -233 121 -237 3 -4 20 2 39 14 l35
20 -125 243 c-69 134 -125 246 -125 249 0 3 13 12 29 21 l29 15 85 -168 c47
-92 104 -204 128 -249 l42 -81 34 16 c18 9 33 20 33 24 0 5 -56 119 -125 253
l-126 243 31 15 c29 15 31 15 44 -11 7 -15 64 -125 125 -245 l112 -217 -21
-57 c-44 -117 -63 -268 -46 -353 3 -14 8 -38 12 -55 8 -39 55 -146 71 -163 7
-7 13 -17 13 -21 0 -15 96 -105 145 -136 79 -51 138 -68 250 -71 84 -2 112 1
174 22 226 75 397 286 430 532 9 65 8 165 -3 207 -3 11 -9 36 -14 55 -5 19
-21 58 -35 85 -65 127 -99 200 -127 276 -29 77 -29 82 -13 95 17 12 15 18 -24
96 -29 57 -45 106 -53 158 -7 41 -14 88 -16 105 -3 16 -3 27 -1 25 2 -3 41
-77 86 -165 46 -88 85 -163 87 -167 5 -7 50 9 68 23 4 4 -49 118 -119 254 -70
135 -125 248 -123 249 16 15 52 26 58 19 4 -4 62 -115 130 -245 67 -131 124
-238 126 -238 11 0 64 31 64 37 0 3 -56 116 -125 249 -124 243 -124 243 -103
259 12 8 25 11 29 7 4 -4 62 -115 129 -247 67 -132 124 -241 125 -243 2 -2 38
15 63 31 8 6 10 13 4 20 -5 7 -63 117 -128 245 -114 224 -118 234 -100 248 40
29 30 43 194 -281 52 -104 97 -191 98 -193 2 -3 63 25 72 33 1 1 -24 54 -57
116 -121 234 -191 372 -191 379 0 11 53 31 60 23 4 -4 61 -111 125 -238 65
-126 121 -234 125 -238 8 -9 70 18 70 30 0 6 -70 145 -186 370 l-63 122 25 16
c13 9 29 13 34 10 5 -3 57 -101 116 -218 59 -117 114 -224 121 -239 8 -16 18
-28 23 -28 20 0 60 24 60 36 0 7 -24 59 -53 116 -115 220 -187 366 -187 375 0
12 48 35 54 25 5 -9 130 -251 198 -383 l55 -106 36 18 36 19 -54 105 c-113
219 -195 382 -195 388 0 4 13 13 28 21 29 15 29 15 48 -27 19 -40 220 -433
230 -449 4 -6 57 14 73 28 1 1 -54 114 -124 249 -120 233 -126 247 -108 260
32 25 48 17 71 -32 21 -47 221 -435 227 -441 6 -6 65 29 65 38 0 6 -56 119
-125 253 l-124 242 30 14 c17 7 31 12 33 10 2 -2 58 -112 126 -244 67 -132
124 -242 126 -243 4 -6 74 30 74 37 0 4 -4 11 -9 17 -12 13 -241 461 -241 472
0 13 52 34 61 25 4 -4 60 -111 124 -238 65 -126 121 -234 125 -238 8 -9 70 18
70 30 0 3 -56 115 -124 249 -128 248 -130 257 -82 266 19 3 30 -16 193 -334
41 -82 79 -148 85 -148 5 0 23 8 38 17 l29 17 -63 120 c-109 209 -186 363
-186 374 0 9 23 22 40 22 4 0 21 -26 37 -57 142 -282 215 -423 222 -427 5 -3
22 1 39 10 36 17 36 14 -23 129 -100 191 -197 387 -193 389 16 15 52 26 58 19
4 -4 61 -113 125 -241 65 -128 122 -235 126 -238 9 -5 69 23 69 32 0 3 -56
115 -125 249 l-125 243 25 16 c14 9 30 14 35 11 5 -3 46 -78 90 -165 92 -182
160 -313 166 -320 3 -2 20 4 39 14 l33 18 -124 243 c-68 133 -124 247 -124
252 0 9 50 37 55 31 1 -2 58 -112 126 -245 68 -134 130 -243 137 -243 7 0 24
7 37 16 l25 16 -125 244 c-69 134 -125 246 -125 249 0 2 13 11 29 20 l30 15
81 -158 c44 -86 101 -198 127 -248 l47 -92 33 16 c18 9 33 20 33 25 0 5 -56
119 -125 252 l-125 243 36 17 c20 9 40 13 44 8 5 -4 56 -100 113 -212 58 -113
117 -220 132 -239 25 -31 31 -34 68 -29 77 10 80 1 -103 370 -92 186 -176 346
-187 356 -41 39 -57 36 -196 -35 -166 -84 -507 -258 -742 -379 -99 -51 -272
-140 -385 -197 -113 -58 -317 -163 -455 -233 -137 -71 -283 -145 -324 -167
-70 -36 -73 -37 -68 -16 3 13 60 239 127 503 67 264 124 489 126 501 2 11 31
129 63 261 33 132 62 251 65 264 4 22 74 309 177 724 39 161 49 248 31 281 -6
10 -10 7 -18 -14z m-587 -1967 c11 -3 29 -21 38 -41 22 -47 7 -96 -37 -117
-76 -37 -155 30 -126 109 12 35 60 67 88 59 8 -2 25 -6 37 -10z m-477 -1186
c0 -9 -6 -31 -13 -48 -15 -36 -21 -33 -56 36 l-21 42 28 14 c24 12 29 12 44
-7 10 -12 18 -28 18 -37z m-115 -99 c39 -78 43 -92 33 -115 -6 -14 -14 -25
-18 -25 -3 0 -30 45 -59 101 -49 95 -51 102 -34 115 10 7 21 14 25 14 4 0 28
-40 53 -90z m-97 -113 l71 -137 -17 -41 -17 -40 -83 160 c-45 88 -82 162 -82
165 0 5 54 36 56 33 1 -1 33 -64 72 -140z m-105 -122 c82 -162 97 -199 90
-220 -4 -14 -12 -25 -17 -26 -5 0 -58 93 -117 208 -105 204 -107 208 -86 220
12 7 24 12 27 13 3 0 49 -88 103 -195z m669 -221 c157 -51 252 -260 207 -454
-60 -261 -335 -432 -541 -338 -129 59 -208 197 -203 354 2 82 12 118 53 203
95 199 297 297 484 235z"/>
<path d="M3654 3409 c-438 -180 -800 -331 -805 -336 -5 -5 -29 -90 -54 -188
-24 -99 -48 -191 -51 -204 l-7 -24 49 29 c27 15 209 122 404 238 195 115 364
215 375 221 11 6 65 37 120 70 120 72 109 65 236 140 523 308 627 370 623 375
-3 2 -25 4 -50 5 -37 0 -190 -59 -840 -326z"/>
<path d="M589 2826 c-2 -2 -23 -6 -46 -9 -128 -18 -276 -99 -376 -207 -313
-339 -156 -840 281 -899 134 -18 252 3 387 71 99 50 1495 879 1495 889 0 5
-13 38 -30 74 -16 36 -30 70 -30 75 0 15 -15 12 -72 -14 -98 -45 -123 -55
-213 -81 -134 -39 -265 -57 -415 -57 -273 -1 -419 22 -678 109 -103 34 -152
45 -216 48 -46 2 -85 2 -87 1z m226 -210 c102 -50 165 -131 181 -231 32 -198
-93 -393 -304 -477 -46 -18 -77 -22 -162 -22 -95 -1 -110 2 -163 28 -70 34
-123 85 -157 152 -21 42 -25 62 -25 145 0 90 2 99 38 171 27 55 54 92 98 132
106 98 209 138 350 133 70 -2 96 -8 144 -31z"/>
</g>
</svg>
